<svg width="16" height="16" viewBox="0 0 16 16" fill="none" xmlns="http://www.w3.org/2000/svg">
<path d="M8.89648 14.2676C8.61523 14.2676 8.4082 14.168 8.27539 13.9688C8.14258 13.7734 8.03125 13.5254 7.94141 13.2246L7.03906 10.248C6.98047 10.041 6.95898 9.86719 6.97461 9.72656C6.99414 9.58594 7.06641 9.44922 7.19141 9.31641L13.2148 2.77734C13.2539 2.73828 13.2734 2.69727 13.2734 2.6543C13.2734 2.60742 13.2578 2.56836 13.2266 2.53711C13.1914 2.50586 13.1504 2.49023 13.1035 2.49023C13.0605 2.49023 13.0195 2.50781 12.9805 2.54297L6.45898 8.58984C6.31445 8.72266 6.17383 8.79688 6.03711 8.8125C5.90039 8.82422 5.73047 8.79883 5.52734 8.73633L2.48633 7.80469C2.20117 7.71875 1.96484 7.61133 1.77734 7.48242C1.58984 7.34961 1.49609 7.14453 1.49609 6.86719C1.49609 6.64062 1.58008 6.44727 1.74805 6.28711C1.91992 6.12695 2.13281 5.99805 2.38672 5.90039L12.5293 2.01562C12.6621 1.96875 12.7871 1.93164 12.9043 1.9043C13.0215 1.87305 13.1289 1.85742 13.2266 1.85742C13.4336 1.85742 13.5977 1.91992 13.7188 2.04492C13.8398 2.16602 13.9004 2.33008 13.9004 2.53711C13.9004 2.63867 13.8867 2.74609 13.8594 2.85938C13.832 2.97266 13.793 3.0957 13.7422 3.22852L9.88086 13.3359C9.77148 13.6172 9.63672 13.8418 9.47656 14.0098C9.31641 14.1816 9.12305 14.2676 8.89648 14.2676Z" fill="white"/>
</svg>
