<svg width="16" height="16" viewBox="0 0 16 16" fill="none" xmlns="http://www.w3.org/2000/svg">
<path d="M3.93359 13.5117C3.79688 13.4102 3.71289 13.2734 3.68164 13.1016C3.6543 12.9336 3.67969 12.7344 3.75781 12.5039L4.96484 8.92383L1.88867 6.71484C1.68945 6.57422 1.55078 6.42773 1.47266 6.27539C1.39453 6.11914 1.38281 5.95898 1.4375 5.79492C1.49219 5.63477 1.5957 5.51562 1.74805 5.4375C1.90039 5.35938 2.09961 5.32031 2.3457 5.32031H6.11328L7.26172 1.74609C7.33594 1.51172 7.43359 1.33398 7.55469 1.21289C7.67969 1.08789 7.82617 1.02539 7.99414 1.02539C8.16602 1.02539 8.3125 1.08789 8.43359 1.21289C8.55859 1.33398 8.6582 1.51172 8.73242 1.74609L9.88086 5.32031H13.6484C13.8945 5.32031 14.0938 5.35938 14.2461 5.4375C14.3984 5.51562 14.502 5.63477 14.5566 5.79492C14.6113 5.95898 14.5996 6.11914 14.5215 6.27539C14.4434 6.42773 14.3047 6.57422 14.1055 6.71484L11.0293 8.92383L12.2363 12.5039C12.3145 12.7344 12.3379 12.9336 12.3066 13.1016C12.2793 13.2734 12.1973 13.4102 12.0605 13.5117C11.9238 13.6211 11.7695 13.6602 11.5977 13.6289C11.4258 13.5977 11.2422 13.5117 11.0469 13.3711L7.99414 11.127L4.94727 13.3711C4.75195 13.5117 4.56836 13.5977 4.39648 13.6289C4.22461 13.6602 4.07031 13.6211 3.93359 13.5117Z" fill="white"/>
</svg>
