<svg width="48" height="32" viewBox="0 0 48 32" fill="none" xmlns="http://www.w3.org/2000/svg">
<path d="M0 16C0 8.45753 0 4.68629 2.34315 2.34315C4.68629 0 8.45753 0 16 0H32C39.5425 0 43.3137 0 45.6569 2.34315C48 4.68629 48 8.45753 48 16C48 23.5425 48 27.3137 45.6569 29.6569C43.3137 32 39.5425 32 32 32H16C8.45753 32 4.68629 32 2.34315 29.6569C0 27.3137 0 23.5425 0 16Z" fill="#EEA272"/>
<path d="M27.7559 15.7695C27.7559 15.8711 27.7363 15.9648 27.6973 16.0508C27.6582 16.1367 27.5996 16.2188 27.5215 16.2969L22.957 20.7617C22.8281 20.8945 22.668 20.9609 22.4766 20.9609C22.3516 20.9609 22.2363 20.9297 22.1309 20.8672C22.0254 20.8086 21.9414 20.7266 21.8789 20.6211C21.8203 20.5195 21.791 20.4062 21.791 20.2812C21.791 20.0938 21.8613 19.9277 22.002 19.7832L26.1152 15.7695L22.002 11.7559C21.8613 11.6113 21.791 11.4473 21.791 11.2637C21.791 11.1348 21.8203 11.0195 21.8789 10.918C21.9414 10.8164 22.0254 10.7363 22.1309 10.6777C22.2363 10.6152 22.3516 10.584 22.4766 10.584C22.668 10.584 22.8281 10.6484 22.957 10.7773L27.5215 15.2422C27.5996 15.3203 27.6582 15.4023 27.6973 15.4883C27.7363 15.5742 27.7559 15.668 27.7559 15.7695Z" fill="#060606"/>
</svg>
