<svg width="18" height="27" viewBox="0 0 18 27" fill="none" xmlns="http://www.w3.org/2000/svg">
<path d="M0.940426 15.0166C0.940426 14.8936 0.963863 14.7764 1.01074 14.665C1.06347 14.5537 1.13671 14.4395 1.23046 14.3223L11.7246 1.28809C11.9062 1.06543 12.1025 0.927734 12.3135 0.875C12.5244 0.822266 12.7148 0.839844 12.8848 0.927734C13.0547 1.01562 13.1719 1.16211 13.2363 1.36719C13.3008 1.56641 13.2803 1.80371 13.1748 2.0791L9.71191 11.3955H16.2773C16.5059 11.3955 16.6904 11.4658 16.8311 11.6064C16.9717 11.7412 17.042 11.9111 17.042 12.1162C17.042 12.2393 17.0156 12.3564 16.9629 12.4678C16.916 12.5791 16.8486 12.6934 16.7607 12.8105L6.25781 25.8359C6.07617 26.0645 5.87988 26.2051 5.66894 26.2578C5.458 26.3105 5.26757 26.29 5.09765 26.1963C4.92773 26.1084 4.81054 25.9648 4.74609 25.7656C4.68164 25.5664 4.70214 25.3291 4.80761 25.0537L8.2705 15.7285H1.70507C1.47656 15.7285 1.29199 15.6611 1.15136 15.5264C1.01074 15.3916 0.940426 15.2217 0.940426 15.0166Z" fill="#7E7E7E"/>
</svg>
