<svg width="17" height="16" viewBox="0 0 17 16" fill="none" xmlns="http://www.w3.org/2000/svg">
<path d="M14.8281 11.0098C14.8516 11.5762 14.7188 12.0078 14.4297 12.3047C14.1406 12.6016 13.7012 12.75 13.1113 12.75H3.61914C3.13086 12.75 2.76172 12.6113 2.51172 12.334C2.26172 12.0566 2.12891 11.6465 2.11328 11.1035L4.32227 9.12305C4.44336 9.00977 4.56445 8.92773 4.68555 8.87695C4.81055 8.82227 4.94141 8.79492 5.07812 8.79492C5.21484 8.79492 5.34961 8.82422 5.48242 8.88281C5.61914 8.9375 5.74805 9.01953 5.86914 9.12891L6.95312 10.1074L9.5957 7.74023C9.73242 7.62305 9.87305 7.53516 10.0176 7.47656C10.1621 7.41797 10.3145 7.38867 10.4746 7.38867C10.6309 7.38867 10.7832 7.41992 10.9316 7.48242C11.084 7.54102 11.2246 7.63086 11.3535 7.75195L14.8281 11.0098ZM6.09766 7.88086C5.83984 7.88086 5.60352 7.81836 5.38867 7.69336C5.17773 7.56836 5.00781 7.39844 4.87891 7.18359C4.75391 6.96875 4.69141 6.73242 4.69141 6.47461C4.69141 6.2207 4.75391 5.98633 4.87891 5.77148C5.00781 5.55664 5.17773 5.38672 5.38867 5.26172C5.60352 5.13281 5.83984 5.06836 6.09766 5.06836C6.35547 5.06836 6.58984 5.13281 6.80078 5.26172C7.01172 5.38672 7.17969 5.55664 7.30469 5.77148C7.43359 5.98633 7.49805 6.2207 7.49805 6.47461C7.49805 6.73242 7.43359 6.96875 7.30469 7.18359C7.17969 7.39844 7.01172 7.56836 6.80078 7.69336C6.58984 7.81836 6.35547 7.88086 6.09766 7.88086ZM3.47852 13.2422C2.8457 13.2422 2.36719 13.082 2.04297 12.7617C1.71875 12.4414 1.55664 11.9688 1.55664 11.3438V4.20703C1.55664 3.58203 1.71875 3.10938 2.04297 2.78906C2.36719 2.46484 2.8457 2.30273 3.47852 2.30273H13.5098C14.1465 2.30273 14.627 2.46484 14.9512 2.78906C15.2754 3.10938 15.4375 3.58203 15.4375 4.20703V11.3438C15.4375 11.9688 15.2754 12.4414 14.9512 12.7617C14.627 13.082 14.1465 13.2422 13.5098 13.2422H3.47852ZM3.54883 12.0938H13.4453C13.7148 12.0938 13.9219 12.0234 14.0664 11.8828C14.2109 11.7383 14.2832 11.5254 14.2832 11.2441V4.30664C14.2832 4.02539 14.2109 3.81445 14.0664 3.67383C13.9219 3.5293 13.7148 3.45703 13.4453 3.45703H3.54883C3.27539 3.45703 3.06641 3.5293 2.92188 3.67383C2.78125 3.81445 2.71094 4.02539 2.71094 4.30664V11.2441C2.71094 11.5254 2.78125 11.7383 2.92188 11.8828C3.06641 12.0234 3.27539 12.0938 3.54883 12.0938Z" fill="white" fill-opacity="0.3"/>
</svg>
