<svg width="94" height="38" viewBox="0 0 94 38" fill="none" xmlns="http://www.w3.org/2000/svg">
<path d="M1 16C1 12.2146 1.00106 9.4259 1.28843 7.28845C1.57387 5.16538 2.13351 3.75989 3.1967 2.6967C4.25989 1.63351 5.66538 1.07387 7.78845 0.788435C9.9259 0.501062 12.7146 0.5 16.5 0.5H77.5C81.2854 0.5 84.0741 0.501062 86.2115 0.788435C88.3346 1.07387 89.7401 1.63351 90.8033 2.6967C91.8665 3.75989 92.4261 5.16538 92.7116 7.28845C92.9989 9.4259 93 12.2146 93 16V22C93 25.7854 92.9989 28.5741 92.7116 30.7116C92.4261 32.8346 91.8665 34.2401 90.8033 35.3033C89.7401 36.3665 88.3346 36.9261 86.2115 37.2116C84.0741 37.4989 81.2854 37.5 77.5 37.5H16.5C12.7146 37.5 9.9259 37.4989 7.78845 37.2116C5.66538 36.9261 4.25989 36.3665 3.1967 35.3033C2.13351 34.2401 1.57387 32.8346 1.28843 30.7116C1.00106 28.5741 1 25.7854 1 22V16Z" stroke="#EEA272"/>
<g filter="url(#filter0_dd_14225_2403)">
<path d="M29.8462 15.9108C31.891 16.4587 32.9134 16.7326 33.1188 17.4994C33.3243 18.2662 32.5759 19.0147 31.0789 20.5116L28.5529 23.0376C27.056 24.5345 26.3075 25.283 25.5407 25.0775C24.7739 24.8721 24.5 23.8497 23.9521 21.8048L23.0275 18.3542C22.4796 16.3094 22.2056 15.287 22.767 14.7256C23.3283 14.1643 24.3507 14.4383 26.3955 14.9862L29.8462 15.9108Z" fill="white"/>
</g>
<path d="M44.7744 20.7251V19.397H48.1611C49.0189 19.397 49.6829 19.1756 50.1533 18.7329C50.6237 18.2847 50.8589 17.6676 50.8589 16.8818V16.8652C50.8589 16.0739 50.6237 15.4569 50.1533 15.0142C49.6829 14.5715 49.0189 14.3501 48.1611 14.3501H44.7744V13.022H48.543C49.2956 13.022 49.9596 13.1825 50.5352 13.5034C51.1107 13.8244 51.5617 14.2726 51.8882 14.8481C52.2202 15.4237 52.3862 16.0905 52.3862 16.8486V16.8652C52.3862 17.6234 52.2202 18.293 51.8882 18.874C51.5617 19.4551 51.1107 19.9089 50.5352 20.2354C49.9596 20.5618 49.2956 20.7251 48.543 20.7251H44.7744ZM44.0273 25V13.022H45.5215V25H44.0273ZM54.435 25V13.022H59.0087C59.7779 13.022 60.4475 13.1714 61.0175 13.4702C61.593 13.7635 62.0385 14.1758 62.3539 14.707C62.6693 15.2383 62.8271 15.8636 62.8271 16.583V16.5996C62.8271 17.4297 62.614 18.1491 62.1879 18.7578C61.7618 19.3665 61.1724 19.7899 60.4198 20.0278L63.1923 25H61.4408L58.8759 20.2603C58.8648 20.2603 58.851 20.2603 58.8344 20.2603C58.8178 20.2603 58.8039 20.2603 58.7929 20.2603H55.9291V25H54.435ZM55.9291 18.9321H58.8759C59.6451 18.9321 60.2372 18.7357 60.6522 18.3428C61.0728 17.9443 61.2831 17.3799 61.2831 16.6494V16.6328C61.2831 15.9189 61.0645 15.36 60.6273 14.9561C60.1902 14.5521 59.5842 14.3501 58.8095 14.3501H55.9291V18.9321ZM70.1717 25.2822C69.0262 25.2822 68.0439 25.0277 67.2249 24.5186C66.4059 24.0039 65.775 23.2762 65.3323 22.3354C64.8952 21.3947 64.6766 20.2879 64.6766 19.0151V18.9985C64.6766 17.7147 64.8979 16.6051 65.3406 15.6699C65.7889 14.7347 66.4225 14.0125 67.2415 13.5034C68.066 12.9943 69.0428 12.7397 70.1717 12.7397C71.3061 12.7397 72.2828 12.9943 73.1019 13.5034C73.9264 14.0125 74.56 14.7375 75.0027 15.6782C75.4454 16.6134 75.6668 17.7202 75.6668 18.9985V19.0151C75.6668 20.2879 75.4454 21.3947 75.0027 22.3354C74.5656 23.2707 73.9347 23.9956 73.1102 24.5103C72.2911 25.0249 71.3117 25.2822 70.1717 25.2822ZM70.1717 23.9043C70.9907 23.9043 71.6963 23.7023 72.2884 23.2983C72.8805 22.8944 73.337 22.3271 73.658 21.5967C73.979 20.8607 74.1395 20.0002 74.1395 19.0151V18.9985C74.1395 18.0024 73.979 17.1392 73.658 16.4087C73.337 15.6782 72.8805 15.1138 72.2884 14.7153C71.6963 14.3169 70.9907 14.1177 70.1717 14.1177C69.3582 14.1177 68.6554 14.3169 68.0633 14.7153C67.4712 15.1138 67.0118 15.6782 66.6854 16.4087C66.3644 17.1392 66.2039 18.0024 66.2039 18.9985V19.0151C66.2039 20.0002 66.3616 20.8607 66.6771 21.5967C66.9925 22.3271 67.4463 22.8944 68.0384 23.2983C68.6305 23.7023 69.3416 23.9043 70.1717 23.9043Z" fill="white"/>
<defs>
<filter id="filter0_dd_14225_2403" x="11.9393" y="3.89794" width="31.7318" height="31.7318" filterUnits="userSpaceOnUse" color-interpolation-filters="sRGB">
<feFlood flood-opacity="0" result="BackgroundImageFix"/>
<feColorMatrix in="SourceAlpha" type="matrix" values="0 0 0 0 0 0 0 0 0 0 0 0 0 0 0 0 0 0 127 0" result="hardAlpha"/>
<feOffset/>
<feGaussianBlur stdDeviation="5.25938"/>
<feComposite in2="hardAlpha" operator="out"/>
<feColorMatrix type="matrix" values="0 0 0 0 0.0196078 0 0 0 0 0.431373 0 0 0 0 0.670588 0 0 0 1 0"/>
<feBlend mode="plus-lighter" in2="BackgroundImageFix" result="effect1_dropShadow_14225_2403"/>
<feColorMatrix in="SourceAlpha" type="matrix" values="0 0 0 0 0 0 0 0 0 0 0 0 0 0 0 0 0 0 127 0" result="hardAlpha"/>
<feOffset/>
<feGaussianBlur stdDeviation="1.03125"/>
<feComposite in2="hardAlpha" operator="out"/>
<feColorMatrix type="matrix" values="0 0 0 0 1 0 0 0 0 1 0 0 0 0 1 0 0 0 1 0"/>
<feBlend mode="plus-lighter" in2="effect1_dropShadow_14225_2403" result="effect2_dropShadow_14225_2403"/>
<feBlend mode="normal" in="SourceGraphic" in2="effect2_dropShadow_14225_2403" result="shape"/>
</filter>
</defs>
</svg>
