<svg width="32" height="32" viewBox="0 0 32 32" fill="none" xmlns="http://www.w3.org/2000/svg">
<path d="M0 16C0 8.45753 0 4.68629 2.34315 2.34315C4.68629 0 8.45753 0 16 0C23.5425 0 27.3137 0 29.6569 2.34315C32 4.68629 32 8.45753 32 16C32 23.5425 32 27.3137 29.6569 29.6569C27.3137 32 23.5425 32 16 32C8.45753 32 4.68629 32 2.34315 29.6569C0 27.3137 0 23.5425 0 16Z" fill="white" fill-opacity="0.05"/>
<path d="M12.25 15.7695C12.25 15.668 12.2676 15.5742 12.3027 15.4883C12.3418 15.4023 12.4004 15.3203 12.4785 15.2422L17.043 10.7773C17.1758 10.6484 17.3359 10.584 17.5234 10.584C17.6523 10.584 17.7676 10.6152 17.8691 10.6777C17.9746 10.7363 18.0586 10.8164 18.1211 10.918C18.1836 11.0195 18.2148 11.1348 18.2148 11.2637C18.2148 11.4473 18.1426 11.6113 17.998 11.7559L13.8848 15.7695L17.998 19.7832C18.1426 19.9277 18.2148 20.0938 18.2148 20.2812C18.2148 20.4062 18.1836 20.5195 18.1211 20.6211C18.0586 20.7266 17.9746 20.8086 17.8691 20.8672C17.7676 20.9297 17.6523 20.9609 17.5234 20.9609C17.3359 20.9609 17.1758 20.8945 17.043 20.7617L12.4785 16.2969C12.4004 16.2188 12.3418 16.1367 12.3027 16.0508C12.2676 15.9648 12.25 15.8711 12.25 15.7695Z" fill="white"/>
</svg>
