<svg width="17" height="16" viewBox="0 0 17 16" fill="none" xmlns="http://www.w3.org/2000/svg">
<path d="M7.28711 12.9961C7.00586 12.9961 6.76562 12.8711 6.56641 12.6211L3.53125 8.82422C3.45703 8.73438 3.40234 8.64648 3.36719 8.56055C3.33594 8.47461 3.32031 8.38672 3.32031 8.29688C3.32031 8.09375 3.38672 7.92578 3.51953 7.79297C3.65625 7.66016 3.82812 7.59375 4.03516 7.59375C4.27344 7.59375 4.47461 7.70117 4.63867 7.91602L7.26367 11.2852L12.3496 3.20508C12.4395 3.06836 12.5312 2.97266 12.625 2.91797C12.7188 2.85938 12.8398 2.83008 12.9883 2.83008C13.1914 2.83008 13.3574 2.89453 13.4863 3.02344C13.6152 3.14844 13.6797 3.3125 13.6797 3.51562C13.6797 3.59766 13.666 3.68164 13.6387 3.76758C13.6113 3.84961 13.5684 3.9375 13.5098 4.03125L8.00195 12.6152C7.83008 12.8691 7.5918 12.9961 7.28711 12.9961Z" fill="white"/>
</svg>
