<svg width="16" height="16" viewBox="0 0 16 16" fill="none" xmlns="http://www.w3.org/2000/svg">
<path d="M7.99414 1.7168C8.74414 1.7168 9.45117 1.84375 10.1152 2.09766C10.7832 2.34766 11.3828 2.70117 11.9141 3.1582C12.4492 3.61133 12.8926 4.14258 13.2441 4.75195C13.5957 5.36133 13.832 6.02344 13.9531 6.73828H14.7207C14.8691 6.73828 14.9785 6.76953 15.0488 6.83203C15.123 6.89453 15.1582 6.97656 15.1543 7.07812C15.1504 7.17578 15.1094 7.2793 15.0312 7.38867L13.6719 9.28125C13.5742 9.41406 13.4609 9.48047 13.332 9.48047C13.207 9.47656 13.0977 9.41016 13.0039 9.28125L11.6387 7.38867C11.5645 7.2793 11.5254 7.17578 11.5215 7.07812C11.5215 6.97656 11.5566 6.89453 11.627 6.83203C11.7012 6.76953 11.8086 6.73828 11.9492 6.73828H12.7285C12.6113 6.1875 12.4082 5.67969 12.1191 5.21484C11.834 4.75 11.4805 4.3457 11.0586 4.00195C10.6406 3.6582 10.1719 3.39063 9.65234 3.19922C9.13281 3.00781 8.58008 2.91211 7.99414 2.91211C7.32227 2.91211 6.68945 3.04297 6.0957 3.30469C5.50195 3.56641 4.99023 3.92383 4.56055 4.37695C4.40039 4.52148 4.24609 4.58984 4.09766 4.58203C3.94922 4.57031 3.82422 4.51758 3.72266 4.42383C3.60547 4.32227 3.53711 4.18359 3.51758 4.00781C3.50195 3.83203 3.57031 3.67188 3.72266 3.52734C4.26172 2.96875 4.89844 2.52734 5.63281 2.20312C6.37109 1.87891 7.1582 1.7168 7.99414 1.7168ZM7.99414 13.8223C7.24805 13.8223 6.54102 13.6953 5.87305 13.4414C5.20898 13.1875 4.60938 12.832 4.07422 12.375C3.54297 11.9219 3.09961 11.3926 2.74414 10.7871C2.39258 10.1777 2.15625 9.51562 2.03516 8.80078H1.26758C1.12305 8.80078 1.01367 8.76953 0.939453 8.70703C0.865234 8.64453 0.830078 8.5625 0.833984 8.46094C0.837891 8.35938 0.878906 8.25586 0.957031 8.15039L2.32227 6.25195C2.41602 6.12305 2.52734 6.05859 2.65625 6.05859C2.78516 6.05859 2.89648 6.12305 2.99023 6.25195L4.34961 8.15039C4.42773 8.25977 4.4668 8.36523 4.4668 8.4668C4.4707 8.56445 4.43555 8.64453 4.36133 8.70703C4.29102 8.76953 4.18359 8.80078 4.03906 8.80078H3.26562C3.37891 9.34766 3.57812 9.85352 3.86328 10.3184C4.15234 10.7832 4.50781 11.1895 4.92969 11.5371C5.35156 11.8809 5.82227 12.1484 6.3418 12.3398C6.86133 12.5312 7.41211 12.627 7.99414 12.627C8.66992 12.627 9.30273 12.4961 9.89258 12.2344C10.4863 11.9727 11 11.6152 11.4336 11.1621C11.5938 11.0176 11.7461 10.9512 11.8906 10.9629C12.0391 10.9707 12.1641 11.0195 12.2656 11.1094C12.3867 11.2109 12.4551 11.3516 12.4707 11.5312C12.4902 11.707 12.4219 11.8672 12.2656 12.0117C11.7305 12.5664 11.0938 13.0059 10.3555 13.3301C9.62109 13.6582 8.83398 13.8223 7.99414 13.8223Z" fill="white"/>
</svg>
