<svg width="124" height="38" viewBox="0 0 124 38" fill="none" xmlns="http://www.w3.org/2000/svg">
<path d="M0.5 16C0.5 12.2146 0.501062 9.4259 0.788435 7.28845C1.07387 5.16538 1.63351 3.75989 2.6967 2.6967C3.75989 1.63351 5.16538 1.07387 7.28845 0.788435C9.4259 0.501062 12.2146 0.5 16 0.5H108C111.785 0.5 114.574 0.501062 116.712 0.788435C118.835 1.07387 120.24 1.63351 121.303 2.6967C122.366 3.75989 122.926 5.16538 123.212 7.28845C123.499 9.4259 123.5 12.2146 123.5 16V22C123.5 25.7854 123.499 28.5741 123.212 30.7116C122.926 32.8346 122.366 34.2401 121.303 35.3033C120.24 36.3665 118.835 36.9261 116.712 37.2116C114.574 37.4989 111.785 37.5 108 37.5H16C12.2146 37.5 9.4259 37.4989 7.28845 37.2116C5.16538 36.9261 3.75989 36.3665 2.6967 35.3033C1.63351 34.2401 1.07387 32.8346 0.788435 30.7116C0.501062 28.5741 0.5 25.7854 0.5 22V16Z" stroke="#F1D566"/>
<g filter="url(#filter0_dd_14225_2100)">
<path d="M29.3466 15.9107C31.3915 16.4586 32.4139 16.7326 32.6193 17.4994C32.8248 18.2662 32.0763 19.0147 30.5794 20.5116L28.0534 23.0376C26.5565 24.5345 25.808 25.283 25.0412 25.0775C24.2744 24.872 24.0005 23.8496 23.4526 21.8048L22.528 18.3542C21.9801 16.3094 21.7061 15.287 22.2674 14.7256C22.8288 14.1643 23.8512 14.4382 25.896 14.9861L29.3466 15.9107Z" fill="white"/>
</g>
<path d="M48.4912 25.2822C47.6611 25.2822 46.9113 25.1356 46.2417 24.8423C45.5776 24.549 45.0076 24.1284 44.5317 23.5806C44.0614 23.0327 43.6989 22.3742 43.4443 21.605C43.1898 20.8358 43.0625 19.9725 43.0625 19.0151V18.9985C43.0625 17.7368 43.2866 16.6383 43.7349 15.7031C44.1831 14.7624 44.814 14.0347 45.6274 13.52C46.4465 12.9998 47.401 12.7397 48.4912 12.7397C49.3766 12.7397 50.1652 12.8975 50.8569 13.2129C51.5542 13.5228 52.127 13.96 52.5752 14.5244C53.029 15.0889 53.3333 15.7502 53.4883 16.5083L53.5049 16.5913H51.9941L51.9692 16.5083C51.7257 15.7336 51.3079 15.1414 50.7158 14.7319C50.1237 14.3224 49.3822 14.1177 48.4912 14.1177C47.6999 14.1177 47.0109 14.3197 46.4243 14.7236C45.8433 15.1221 45.3923 15.6865 45.0713 16.417C44.7503 17.1475 44.5898 18.008 44.5898 18.9985V19.0151C44.5898 19.7677 44.6784 20.4456 44.8555 21.0488C45.0381 21.652 45.2982 22.1667 45.6357 22.5928C45.9788 23.0133 46.3911 23.3371 46.8726 23.564C47.354 23.7909 47.8963 23.9043 48.4995 23.9043C49.2134 23.9043 49.8387 23.7632 50.3755 23.481C50.9178 23.1932 51.3384 22.7948 51.6372 22.2856C51.936 21.7765 52.0854 21.1844 52.0854 20.5093V20.2188H48.7236V18.9072H53.5796V20.3682C53.5796 21.1042 53.4578 21.7738 53.2144 22.377C52.9764 22.9801 52.6333 23.5003 52.1851 23.9375C51.7368 24.3691 51.2 24.7012 50.5747 24.9336C49.9494 25.166 49.2549 25.2822 48.4912 25.2822ZM59.2973 25.1577C58.4451 25.1577 57.7118 24.9696 57.0976 24.5933C56.4888 24.217 56.0185 23.6857 55.6864 22.9995C55.3599 22.3078 55.1967 21.4943 55.1967 20.5591V20.5508C55.1967 19.6266 55.3599 18.8159 55.6864 18.1187C56.0185 17.4214 56.4861 16.8763 57.0893 16.4834C57.6924 16.0905 58.398 15.894 59.206 15.894C60.0194 15.894 60.7167 16.0822 61.2978 16.4585C61.8843 16.8348 62.3326 17.3605 62.6425 18.0356C62.9579 18.7052 63.1156 19.4855 63.1156 20.3765V20.9409H55.9438V19.7871H62.3769L61.663 20.8413V20.2686C61.663 19.5658 61.5578 18.9875 61.3476 18.5337C61.1373 18.0799 60.8467 17.7424 60.476 17.521C60.1052 17.2941 59.6791 17.1807 59.1977 17.1807C58.7162 17.1807 58.2846 17.2996 57.9027 17.5376C57.5264 17.77 57.2276 18.1159 57.0063 18.5752C56.7849 19.0345 56.6742 19.599 56.6742 20.2686V20.8413C56.6742 21.4777 56.7821 22.0228 56.9979 22.4766C57.2138 22.9248 57.5209 23.2707 57.9193 23.5142C58.3178 23.7521 58.7882 23.8711 59.3305 23.8711C59.7344 23.8711 60.0858 23.8158 60.3847 23.7051C60.6835 23.5944 60.9298 23.4533 61.1234 23.2817C61.3171 23.1102 61.4527 22.9359 61.5302 22.7588L61.5634 22.6841H63.0077L62.9911 22.7505C62.9136 23.0549 62.7753 23.3509 62.5761 23.6387C62.3824 23.9209 62.1306 24.1782 61.8207 24.4106C61.5108 24.6375 61.1428 24.8201 60.7167 24.9585C60.2961 25.0913 59.823 25.1577 59.2973 25.1577ZM68.136 25.0664C67.2174 25.0664 66.5506 24.881 66.1355 24.5103C65.726 24.1395 65.5213 23.528 65.5213 22.6758V17.2471H64.1102V16.0518H65.5213V13.7358H67.0154V16.0518H68.9744V17.2471H67.0154V22.3105C67.0154 22.8363 67.115 23.2153 67.3143 23.4478C67.5135 23.6746 67.8455 23.7881 68.3104 23.7881C68.4376 23.7881 68.5455 23.7853 68.6341 23.7798C68.7282 23.7743 68.8416 23.766 68.9744 23.7549V24.9834C68.8361 25.0055 68.6977 25.0249 68.5594 25.0415C68.421 25.0581 68.2799 25.0664 68.136 25.0664ZM76.0436 20.7251V19.397H79.4303C80.288 19.397 80.9521 19.1756 81.4225 18.7329C81.8928 18.2847 82.128 17.6676 82.128 16.8818V16.8652C82.128 16.0739 81.8928 15.4569 81.4225 15.0142C80.9521 14.5715 80.288 14.3501 79.4303 14.3501H76.0436V13.022H79.8121C80.5647 13.022 81.2288 13.1825 81.8043 13.5034C82.3798 13.8244 82.8308 14.2726 83.1573 14.8481C83.4894 15.4237 83.6554 16.0905 83.6554 16.8486V16.8652C83.6554 17.6234 83.4894 18.293 83.1573 18.874C82.8308 19.4551 82.3798 19.9089 81.8043 20.2354C81.2288 20.5618 80.5647 20.7251 79.8121 20.7251H76.0436ZM75.2965 25V13.022H76.7906V25H75.2965ZM85.7041 25V13.022H90.2778C91.047 13.022 91.7166 13.1714 92.2866 13.4702C92.8621 13.7635 93.3076 14.1758 93.623 14.707C93.9385 15.2383 94.0962 15.8636 94.0962 16.583V16.5996C94.0962 17.4297 93.8831 18.1491 93.457 18.7578C93.0309 19.3665 92.4416 19.7899 91.689 20.0278L94.4614 25H92.71L90.145 20.2603C90.134 20.2603 90.1201 20.2603 90.1035 20.2603C90.0869 20.2603 90.0731 20.2603 90.062 20.2603H87.1982V25H85.7041ZM87.1982 18.9321H90.145C90.9142 18.9321 91.5063 18.7357 91.9214 18.3428C92.342 17.9443 92.5522 17.3799 92.5522 16.6494V16.6328C92.5522 15.9189 92.3337 15.36 91.8965 14.9561C91.4593 14.5521 90.8534 14.3501 90.0786 14.3501H87.1982V18.9321ZM101.441 25.2822C100.295 25.2822 99.3131 25.0277 98.494 24.5186C97.675 24.0039 97.0442 23.2762 96.6015 22.3354C96.1643 21.3947 95.9457 20.2879 95.9457 19.0151V18.9985C95.9457 17.7147 96.1671 16.6051 96.6098 15.6699C97.058 14.7347 97.6916 14.0125 98.5106 13.5034C99.3352 12.9943 100.312 12.7397 101.441 12.7397C102.575 12.7397 103.552 12.9943 104.371 13.5034C105.196 14.0125 105.829 14.7375 106.272 15.6782C106.715 16.6134 106.936 17.7202 106.936 18.9985V19.0151C106.936 20.2879 106.715 21.3947 106.272 22.3354C105.835 23.2707 105.204 23.9956 104.379 24.5103C103.56 25.0249 102.581 25.2822 101.441 25.2822ZM101.441 23.9043C102.26 23.9043 102.965 23.7023 103.558 23.2983C104.15 22.8944 104.606 22.3271 104.927 21.5967C105.248 20.8607 105.409 20.0002 105.409 19.0151V18.9985C105.409 18.0024 105.248 17.1392 104.927 16.4087C104.606 15.6782 104.15 15.1138 103.558 14.7153C102.965 14.3169 102.26 14.1177 101.441 14.1177C100.627 14.1177 99.9245 14.3169 99.3324 14.7153C98.7403 15.1138 98.281 15.6782 97.9545 16.4087C97.6335 17.1392 97.473 18.0024 97.473 18.9985V19.0151C97.473 20.0002 97.6308 20.8607 97.9462 21.5967C98.2616 22.3271 98.7154 22.8944 99.3075 23.2983C99.8996 23.7023 100.611 23.9043 101.441 23.9043Z" fill="white"/>
<defs>
<filter id="filter0_dd_14225_2100" x="11.4397" y="3.89792" width="31.7318" height="31.7318" filterUnits="userSpaceOnUse" color-interpolation-filters="sRGB">
<feFlood flood-opacity="0" result="BackgroundImageFix"/>
<feColorMatrix in="SourceAlpha" type="matrix" values="0 0 0 0 0 0 0 0 0 0 0 0 0 0 0 0 0 0 127 0" result="hardAlpha"/>
<feOffset/>
<feGaussianBlur stdDeviation="5.25938"/>
<feComposite in2="hardAlpha" operator="out"/>
<feColorMatrix type="matrix" values="0 0 0 0 0.0196078 0 0 0 0 0.431373 0 0 0 0 0.670588 0 0 0 1 0"/>
<feBlend mode="plus-lighter" in2="BackgroundImageFix" result="effect1_dropShadow_14225_2100"/>
<feColorMatrix in="SourceAlpha" type="matrix" values="0 0 0 0 0 0 0 0 0 0 0 0 0 0 0 0 0 0 127 0" result="hardAlpha"/>
<feOffset/>
<feGaussianBlur stdDeviation="1.03125"/>
<feComposite in2="hardAlpha" operator="out"/>
<feColorMatrix type="matrix" values="0 0 0 0 1 0 0 0 0 1 0 0 0 0 1 0 0 0 1 0"/>
<feBlend mode="plus-lighter" in2="effect1_dropShadow_14225_2100" result="effect2_dropShadow_14225_2100"/>
<feBlend mode="normal" in="SourceGraphic" in2="effect2_dropShadow_14225_2100" result="shape"/>
</filter>
</defs>
</svg>
