<svg width="22" height="27" viewBox="0 0 22 27" fill="none" xmlns="http://www.w3.org/2000/svg">
<path d="M12.582 26.6689C12.4238 26.6689 12.2891 26.6191 12.1777 26.5195C12.0664 26.4199 11.9961 26.2852 11.9668 26.1152C11.8262 25.0723 11.6768 24.1699 11.5186 23.4082C11.3604 22.6523 11.1641 22.0078 10.9297 21.4746C10.7012 20.9473 10.4111 20.5107 10.0596 20.165C9.70801 19.8135 9.26855 19.5264 8.74121 19.3037C8.21973 19.0811 7.58398 18.8936 6.83398 18.7412C6.08984 18.5889 5.20508 18.4453 4.17969 18.3105C4.00977 18.2988 3.86914 18.2373 3.75781 18.126C3.65234 18.0088 3.59961 17.8711 3.59961 17.7129C3.59961 17.543 3.65234 17.4023 3.75781 17.291C3.86914 17.1797 4.00977 17.1152 4.17969 17.0977C5.21094 16.9863 6.10156 16.8633 6.85156 16.7285C7.60156 16.5879 8.24023 16.4062 8.76758 16.1836C9.30078 15.9551 9.74316 15.6621 10.0947 15.3047C10.4521 14.9473 10.7422 14.502 10.9648 13.9688C11.1934 13.4355 11.3838 12.7852 11.5361 12.0176C11.6943 11.25 11.8379 10.3418 11.9668 9.29297C11.9961 9.13477 12.0664 9.00293 12.1777 8.89746C12.2891 8.79199 12.4238 8.73926 12.582 8.73926C12.7461 8.73926 12.8809 8.79199 12.9863 8.89746C13.0977 9.00293 13.165 9.13477 13.1885 9.29297C13.3232 10.3418 13.4668 11.25 13.6191 12.0176C13.7773 12.7793 13.9707 13.4297 14.1992 13.9688C14.4277 14.502 14.7178 14.9473 15.0693 15.3047C15.4268 15.6562 15.8691 15.9463 16.3965 16.1748C16.9238 16.3975 17.5625 16.5791 18.3125 16.7197C19.0625 16.8545 19.9531 16.9805 20.9844 17.0977C21.1543 17.1211 21.292 17.1885 21.3975 17.2998C21.5029 17.4053 21.5557 17.543 21.5557 17.7129C21.5557 17.8711 21.5029 18.0088 21.3975 18.126C21.292 18.2373 21.1543 18.2988 20.9844 18.3105C19.9531 18.4219 19.0625 18.5479 18.3125 18.6885C17.5625 18.8291 16.9209 19.0107 16.3877 19.2334C15.8604 19.4561 15.418 19.7461 15.0605 20.1035C14.709 20.4609 14.4189 20.9062 14.1904 21.4395C13.9619 21.9785 13.7686 22.6289 13.6104 23.3906C13.458 24.1582 13.3174 25.0664 13.1885 26.1152C13.165 26.2852 13.0977 26.4199 12.9863 26.5195C12.8809 26.6191 12.7461 26.6689 12.582 26.6689ZM4.76855 14.0566C4.66309 14.0566 4.5752 14.0244 4.50488 13.96C4.43457 13.8896 4.39355 13.8018 4.38184 13.6963C4.30566 13.0928 4.22949 12.5977 4.15332 12.2109C4.08301 11.8242 3.98047 11.5137 3.8457 11.2793C3.7168 11.0449 3.53223 10.8633 3.29199 10.7344C3.05176 10.5996 2.73242 10.4883 2.33398 10.4004C1.94141 10.3125 1.43457 10.2188 0.813477 10.1191C0.561523 10.084 0.435547 9.95801 0.435547 9.74121C0.435547 9.63574 0.467773 9.55078 0.532227 9.48633C0.59668 9.42188 0.678711 9.37793 0.77832 9.35449C1.39941 9.24316 1.90918 9.14062 2.30762 9.04688C2.71191 8.95312 3.03418 8.8418 3.27441 8.71289C3.52051 8.58398 3.70801 8.40527 3.83691 8.17676C3.97168 7.94824 4.07715 7.64355 4.15332 7.2627C4.22949 6.87598 4.30566 6.38086 4.38184 5.77734C4.39355 5.66602 4.43457 5.57812 4.50488 5.51367C4.5752 5.44922 4.66309 5.41699 4.76855 5.41699C4.86816 5.41699 4.95312 5.44922 5.02344 5.51367C5.09375 5.57812 5.13477 5.66309 5.14648 5.76855C5.22852 6.38379 5.30762 6.89063 5.38379 7.28906C5.45996 7.68164 5.5625 7.99512 5.69141 8.22949C5.82617 8.45801 6.01367 8.63965 6.25391 8.77441C6.49414 8.90332 6.81348 9.01172 7.21191 9.09961C7.61621 9.18164 8.12891 9.2666 8.75 9.35449C8.84375 9.37207 8.92285 9.41602 8.9873 9.48633C9.05762 9.55078 9.09277 9.63574 9.09277 9.74121C9.09277 9.84668 9.06055 9.93164 8.99609 9.99609C8.93164 10.0605 8.84961 10.1016 8.75 10.1191C8.12305 10.2363 7.61035 10.3418 7.21191 10.4355C6.81348 10.5293 6.49414 10.6436 6.25391 10.7783C6.01367 10.9072 5.82617 11.0889 5.69141 11.3232C5.5625 11.5518 5.45996 11.8564 5.38379 12.2373C5.30762 12.6182 5.22852 13.1104 5.14648 13.7139C5.13477 13.8135 5.09375 13.8955 5.02344 13.96C4.95312 14.0244 4.86816 14.0566 4.76855 14.0566ZM10.2881 6.20801C10.1475 6.20801 10.0625 6.12598 10.0332 5.96191C9.95703 5.51074 9.88672 5.15332 9.82227 4.88965C9.75781 4.62012 9.6582 4.41504 9.52344 4.27441C9.39453 4.13379 9.19238 4.02539 8.91699 3.94922C8.64746 3.86719 8.26367 3.78223 7.76562 3.69434C7.60742 3.6709 7.52832 3.58594 7.52832 3.43945C7.52832 3.29297 7.60742 3.20801 7.76562 3.18457C8.26367 3.09668 8.64746 3.01465 8.91699 2.93848C9.19238 2.85645 9.39453 2.74512 9.52344 2.60449C9.6582 2.45801 9.75781 2.25293 9.82227 1.98926C9.88672 1.72559 9.95703 1.36816 10.0332 0.916992C10.0625 0.758789 10.1475 0.679688 10.2881 0.679688C10.4346 0.679688 10.5225 0.758789 10.5518 0.916992C10.6279 1.36816 10.6982 1.72852 10.7627 1.99805C10.8271 2.26172 10.9238 2.4668 11.0527 2.61328C11.1875 2.75391 11.3896 2.86523 11.6592 2.94727C11.9346 3.02344 12.3213 3.10254 12.8193 3.18457C12.9775 3.20801 13.0566 3.29297 13.0566 3.43945C13.0566 3.58594 12.9775 3.6709 12.8193 3.69434C12.3213 3.78809 11.9346 3.87598 11.6592 3.95801C11.3896 4.03418 11.1875 4.14258 11.0527 4.2832C10.9238 4.42383 10.8271 4.62598 10.7627 4.88965C10.6982 5.15332 10.6279 5.51074 10.5518 5.96191C10.5225 6.12598 10.4346 6.20801 10.2881 6.20801Z" fill="#7E7E7E"/>
</svg>
