<svg width="22" height="22" viewBox="0 0 22 22" fill="none" xmlns="http://www.w3.org/2000/svg">
<path d="M4.10937 21.1309C2.93164 21.1309 2.03808 20.832 1.42871 20.2344C0.825191 19.6367 0.523434 18.752 0.523434 17.5801V3.7373C0.523434 2.57129 0.825191 1.68945 1.42871 1.0918C2.03808 0.488281 2.93164 0.186523 4.10937 0.186523H17.8818C19.0654 0.186523 19.959 0.488281 20.5625 1.0918C21.166 1.69531 21.4678 2.57715 21.4678 3.7373V17.5801C21.4678 18.7461 21.166 19.6279 20.5625 20.2256C19.959 20.8291 19.0654 21.1309 17.8818 21.1309H4.10937ZM4.22363 19.1885H17.7676C18.3301 19.1885 18.7637 19.0391 19.0684 18.7402C19.3789 18.4473 19.5342 18.0049 19.5342 17.4131V3.9043C19.5342 3.3125 19.3789 2.86719 19.0684 2.56836C18.7637 2.26953 18.3301 2.12012 17.7676 2.12012H4.22363C3.64941 2.12012 3.21289 2.26953 2.91406 2.56836C2.61523 2.86719 2.46582 3.3125 2.46582 3.9043V17.4131C2.46582 18.0049 2.61523 18.4473 2.91406 18.7402C3.21289 19.0391 3.64941 19.1885 4.22363 19.1885ZM6.42968 15.1191C5.85546 15.1191 5.40722 14.9668 5.08496 14.6621C4.76855 14.3574 4.61035 13.9238 4.61035 13.3613V8C4.61035 7.42578 4.77148 6.98633 5.09375 6.68164C5.42187 6.37109 5.86718 6.21582 6.42968 6.21582H12.2656C12.8398 6.21582 13.2793 6.37109 13.584 6.68164C13.8887 6.98633 14.041 7.42578 14.041 8V13.3438C14.041 13.9062 13.8828 14.3428 13.5664 14.6533C13.25 14.9639 12.8018 15.1191 12.2217 15.1191H6.42968ZM14.665 12.2715V9.07227L16.6953 7.3584C16.8008 7.27637 16.9062 7.20898 17.0117 7.15625C17.123 7.09766 17.2344 7.06836 17.3457 7.06836C17.5566 7.06836 17.7266 7.13867 17.8555 7.2793C17.9844 7.41406 18.0488 7.59277 18.0488 7.81543V13.5195C18.0488 13.7539 17.9844 13.9414 17.8555 14.082C17.7266 14.2168 17.5566 14.2842 17.3457 14.2842C17.2344 14.2842 17.123 14.2578 17.0117 14.2051C16.9062 14.1465 16.8008 14.0732 16.6953 13.9854L14.665 12.2715Z" fill="#7E7E7E"/>
</svg>
