<svg width="16" height="16" viewBox="0 0 16 16" fill="none" xmlns="http://www.w3.org/2000/svg">
<path d="M1.66016 4.38867V3.0293C1.66016 2.8457 1.72266 2.69336 1.84766 2.57227C1.97656 2.45117 2.12891 2.39258 2.30469 2.39648C2.48438 2.39648 2.63672 2.45703 2.76172 2.57812C2.89062 2.69531 2.95508 2.8457 2.95508 3.0293V5.05078H2.33984C2.13672 5.05078 1.97266 4.99023 1.84766 4.86914C1.72266 4.74805 1.66016 4.58789 1.66016 4.38867ZM3.22461 1.47656H11.1816C11.8105 1.47656 12.2852 1.63867 12.6055 1.96289C12.9258 2.28711 13.0859 2.76562 13.0859 3.39844V9.55078H7.29102C6.86133 9.55078 6.54297 9.66211 6.33594 9.88477C6.12891 10.1035 6.02539 10.4238 6.02539 10.8457V12.5273C6.02539 12.918 5.92383 13.2188 5.7207 13.4297C5.52148 13.6406 5.26367 13.7461 4.94727 13.7461C4.61133 13.7461 4.33594 13.6367 4.12109 13.418C3.91016 13.2031 3.80469 12.8926 3.80469 12.4863V2.64844C3.80469 2.34766 3.76172 2.10742 3.67578 1.92773C3.58984 1.74414 3.43945 1.59375 3.22461 1.47656ZM6.13672 4.58789C6.13672 4.69336 6.17188 4.7832 6.24219 4.85742C6.31641 4.92773 6.4082 4.96289 6.51758 4.96289H10.4961C10.6055 4.96289 10.6953 4.92773 10.7656 4.85742C10.8359 4.7832 10.8711 4.69336 10.8711 4.58789C10.8711 4.48242 10.8359 4.39453 10.7656 4.32422C10.6953 4.25391 10.6055 4.21875 10.4961 4.21875H6.51758C6.4082 4.21875 6.31641 4.25391 6.24219 4.32422C6.17188 4.39453 6.13672 4.48242 6.13672 4.58789ZM6.13672 6.60352C6.13672 6.70508 6.17188 6.79102 6.24219 6.86133C6.31641 6.93164 6.4082 6.9668 6.51758 6.9668H8.62695C8.73633 6.9668 8.82617 6.93164 8.89648 6.86133C8.9668 6.79102 9.00195 6.70508 9.00195 6.60352C9.00195 6.49414 8.9668 6.4043 8.89648 6.33398C8.82617 6.25977 8.73633 6.22266 8.62695 6.22266H6.51758C6.4082 6.22266 6.31641 6.25977 6.24219 6.33398C6.17188 6.4043 6.13672 6.49414 6.13672 6.60352ZM6.29492 14.0625C6.5332 13.8203 6.68945 13.5508 6.76367 13.2539C6.8418 12.9609 6.88086 12.6387 6.88086 12.2871V11.0684C6.88086 10.8691 6.94336 10.709 7.06836 10.5879C7.19336 10.4668 7.35742 10.4062 7.56055 10.4062H13.666C13.873 10.4062 14.0371 10.4668 14.1582 10.5879C14.2793 10.709 14.3398 10.8691 14.3398 11.0684V12.1875C14.3398 12.5859 14.2598 12.9258 14.0996 13.207C13.9434 13.4883 13.7207 13.7012 13.4316 13.8457C13.1426 13.9902 12.8047 14.0625 12.418 14.0625H6.29492Z" fill="white"/>
</svg>
